<svg xmlns="http://www.w3.org/2000/svg" viewBox="0 0 100 100">
  <rect width="100" height="100" rx="18" fill="#6622aa"/>
  <rect x="15" y="20" width="70" height="3" rx="1.5" fill="#ccc"/>
  <rect x="43" y="16" width="14" height="7" rx="2" fill="#ddd"/>
  <rect x="49" y="23" width="2" height="28" fill="#aaa"/>
  <circle cx="50" cy="53" r="4" fill="#ccc"/>
  <g transform="rotate(25, 46, 53)"><rect x="44" y="53" width="3" height="18" rx="1" fill="#fc0"/><rect x="34" y="69" width="10" height="2" rx="1" fill="#fa0"/><rect x="34" y="71" width="10" height="1.5" rx="1" fill="#d33"/></g>
  <g transform="rotate(-25, 54, 53)"><rect x="53" y="53" width="3" height="18" rx="1" fill="#fc0"/><rect x="56" y="69" width="10" height="2" rx="1" fill="#fa0"/><rect x="56" y="71" width="10" height="1.5" rx="1" fill="#d33"/></g>
  <text x="8" y="95" font-size="12" fill="#FFD700">⭐</text>
  <text x="78" y="38" font-size="8" fill="#FF88CC">✦</text>
</svg>
